<?xml version="1.0" encoding="UTF-8" standalone="no"?>
<!-- Generator: Adobe Illustrator 17.0.0, SVG Export Plug-In . SVG Version: 6.00 Build 0)  -->

<svg
   xmlns:dc="http://purl.org/dc/elements/1.1/"
   xmlns:cc="http://creativecommons.org/ns#"
   xmlns:rdf="http://www.w3.org/1999/02/22-rdf-syntax-ns#"
   xmlns:svg="http://www.w3.org/2000/svg"
   xmlns="http://www.w3.org/2000/svg"
   xmlns:sodipodi="http://sodipodi.sourceforge.net/DTD/sodipodi-0.dtd"
   xmlns:inkscape="http://www.inkscape.org/namespaces/inkscape"
   id="Layer_1"
   enable-background="new 0 0 100 100"
   xml:space="preserve"
   viewBox="0 0 100 100"
   version="1.1"
   y="0px"
   x="0px"
   inkscape:version="0.91 r"
   sodipodi:docname="design.svg"><defs
   id="defs13">
	
	
</defs><sodipodi:namedview
   pagecolor="#ffffff"
   bordercolor="#666666"
   borderopacity="1"
   objecttolerance="10"
   gridtolerance="10"
   guidetolerance="10"
   inkscape:pageopacity="0"
   inkscape:pageshadow="2"
   inkscape:window-width="1920"
   inkscape:window-height="1150"
   id="namedview11"
   showgrid="false"
   inkscape:zoom="10.83821"
   inkscape:cx="49.9078"
   inkscape:cy="49.999753"
   inkscape:window-x="0"
   inkscape:window-y="0"
   inkscape:window-maximized="1"
   inkscape:current-layer="Layer_1"
   inkscape:snap-global="false" />
<path
   style="fill:#4d4d4d"
   d="M 51.101475,28.187475 48.262939,25.348939 29.445,6.531 C 27.454,4.54 24.227,4.54 22.236,6.531 L 6.531,22.235 c -1.991,1.991 -1.991,5.219 0,7.21 l 2.503,2.503 11.54,-11.54 c 0.443,-0.443 1.163,-0.443 1.605,0 0.443,0.443 0.444,1.163 0.001,1.606 l -11.54,11.54 4.773,4.774 7.523,-7.523 c 0.443,-0.443 1.163,-0.443 1.605,0 0.443,0.443 0.444,1.163 0.001,1.606 l -7.523,7.523 4.773,4.774 7.523,-7.523 c 0.443,-0.443 1.163,-0.443 1.605,0 0.443,0.443 0.444,1.163 10e-4,1.606 l -7.523,7.523 4.773,4.773"
   id="path4174" /><path
   style="fill:#b3b3b3"
   d="M 7.511,74.914 C 6.13,76.287 5,79.004 5,80.951 l 0,10.488 0,3.541 14.075,0 c 1.947,0 4.668,-1.125 6.045,-2.503 L 93.959,23.609 c 1.384,-1.371 1.389,-3.616 0.01,-4.992 L 81.371,6.049 C 79.993,4.674 77.74,4.678 76.367,6.059 53.452588,29.048237 30.474607,51.973938 7.511,74.914 Z"
   id="path5" /><path
   inkscape:connector-curvature="0"
   style="fill:#4d4d4d"
   id="path7"
   d="m 71.83,48.917 -0.9,0.9 -22.014,22.013 4.773,4.773 7.523,-7.523 c 0.443,-0.443 1.163,-0.443 1.605,0 0.443,0.443 0.444,1.163 10e-4,1.606 l -7.523,7.523 4.773,4.773 7.523,-7.523 c 0.443,-0.443 1.163,-0.443 1.605,-0.001 0.443,0.443 0.444,1.163 0.001,1.607 l -7.523,7.523 4.774,4.773 11.54,-11.54 c 0.443,-0.443 1.163,-0.443 1.605,-0.001 0.443,0.443 0.444,1.164 10e-4,1.607 l -11.54,11.54 2.501,2.501 c 1.991,1.991 5.218,1.991 7.209,0 L 93.468,77.764 c 1.991,-1.991 1.991,-5.219 0,-7.209 L 71.83,48.917 Z" />
<metadata
   id="metadata9"><rdf:RDF><cc:Work><dc:format>image/svg+xml</dc:format><dc:type
         rdf:resource="http://purl.org/dc/dcmitype/StillImage" /><cc:license
         rdf:resource="http://creativecommons.org/licenses/publicdomain/" /><dc:publisher><cc:Agent
           rdf:about="http://openclipart.org/"><dc:title>Openclipart</dc:title></cc:Agent></dc:publisher></cc:Work><cc:License
       rdf:about="http://creativecommons.org/licenses/publicdomain/"><cc:permits
         rdf:resource="http://creativecommons.org/ns#Reproduction" /><cc:permits
         rdf:resource="http://creativecommons.org/ns#Distribution" /><cc:permits
         rdf:resource="http://creativecommons.org/ns#DerivativeWorks" /></cc:License></rdf:RDF></metadata><path
   style="fill:#666666;fill-rule:evenodd;stroke:#ffffff;stroke-width:2;stroke-linecap:butt;stroke-linejoin:miter;stroke-opacity:1;stroke-miterlimit:4;stroke-dasharray:none"
   d="M 79.661017,11.440678 10.169492,79.661017"
   id="path4143"
   inkscape:connector-curvature="0" /><path
   style="fill:#666666;fill-rule:evenodd;stroke:#ffffff;stroke-width:2;stroke-linecap:butt;stroke-linejoin:miter;stroke-opacity:1;stroke-miterlimit:4;stroke-dasharray:none"
   d="M 84.322034,15.88983 14.830509,84.11017"
   id="path4143-6"
   inkscape:connector-curvature="0" /><path
   style="fill:#666666;fill-rule:evenodd;stroke:#ffffff;stroke-width:2;stroke-linecap:butt;stroke-linejoin:miter;stroke-opacity:1;stroke-miterlimit:4;stroke-dasharray:none"
   d="M 88.559322,20.550848 19.067797,88.771187"
   id="path4143-8"
   inkscape:connector-curvature="0" /></svg>